<svg xmlns="http://www.w3.org/2000/svg" viewBox="0 0 1226.83 136.36"><defs><style>.cls-1{fill:#424242;}.cls-2{fill:#5c5c5c;}</style></defs><title>Asset 3</title><g id="Layer_2" data-name="Layer 2"><g id="Layer_1-2" data-name="Layer 1"><path class="cls-1" d="M253.18,53.25a34,34,0,0,1-4.7,17.39,31.4,31.4,0,0,1-5.35,6.71,29.32,29.32,0,0,1-7,4.92l17,28.39h-17L221.06,85.47H211.3l5.83-15.34h6.19a14.61,14.61,0,0,0,11.06-5,18,18,0,0,0,3.33-5.5,17.78,17.78,0,0,0,0-12.79,16.63,16.63,0,0,0-3.33-5.37,14.6,14.6,0,0,0-11.06-5h-16.9v74.16H192.15V21.15h31.17a26.91,26.91,0,0,1,11.6,2.56,30.83,30.83,0,0,1,9.46,6.91,33.27,33.27,0,0,1,6.42,10.16A32.57,32.57,0,0,1,253.18,53.25Z"/><path class="cls-1" d="M302.43,86.36H271.26a16.17,16.17,0,0,0,3.45,5.25,16.77,16.77,0,0,0,5.6,4A16.32,16.32,0,0,0,286.85,97a15.79,15.79,0,0,0,8.68-2.43l14.88,6.39a30.31,30.31,0,0,1-10.36,8.38,29.34,29.34,0,0,1-13.2,3,29,29,0,0,1-12.26-2.62,31.71,31.71,0,0,1-10-7.22,34.07,34.07,0,0,1-6.72-10.74,36.44,36.44,0,0,1,0-26.22,34.07,34.07,0,0,1,6.72-10.74,31.56,31.56,0,0,1,10-7.22,30,30,0,0,1,24.51,0,31.49,31.49,0,0,1,10,7.22,34.25,34.25,0,0,1,6.72,10.74,35.48,35.48,0,0,1,2.44,13.17,33.45,33.45,0,0,1-.84,7.67ZM286.85,60.28a16.47,16.47,0,0,0-12.14,5.37A17.72,17.72,0,0,0,271.26,71h31.17A17.35,17.35,0,0,0,299,65.65,16,16,0,0,0,286.85,60.28Z"/><path class="cls-1" d="M345.26,71A42.75,42.75,0,0,1,350,72.81a36.54,36.54,0,0,1,6.84,3.9,25.62,25.62,0,0,1,6.13,6.2,15,15,0,0,1,2.62,8.83,23.52,23.52,0,0,1-1.37,8.18,19.11,19.11,0,0,1-4,6.52,17.61,17.61,0,0,1-6.42,4.35,22.84,22.84,0,0,1-8.57,1.53,32.55,32.55,0,0,1-13.5-2.81,30.75,30.75,0,0,1-10.05-6.91L331.58,92a14.32,14.32,0,0,0,6.6,5.12,19.87,19.87,0,0,0,5.89,1.15q3.69,0,5.48-1.54A4.72,4.72,0,0,0,351.33,93a3.63,3.63,0,0,0-1.19-2.68,10.32,10.32,0,0,0-2.79-1.92,19.36,19.36,0,0,0-3.28-1.21q-1.67-.45-2.73-.84c-.95-.33-2.56-.93-4.82-1.78a32.46,32.46,0,0,1-6.9-3.71,24.83,24.83,0,0,1-6.13-6.14,15.14,15.14,0,0,1-2.62-9,22.79,22.79,0,0,1,1.73-9.27,18.75,18.75,0,0,1,4.58-6.46,18.27,18.27,0,0,1,6.54-3.77,24.21,24.21,0,0,1,7.62-1.22,30.39,30.39,0,0,1,10.29,1.54,34.34,34.34,0,0,1,7,3.32,24.93,24.93,0,0,1,5.23,4.86l-10,10.74a15.94,15.94,0,0,0-5.23-4.86,12.69,12.69,0,0,0-6.07-1.53,10.54,10.54,0,0,0-4.94,1.28,4.28,4.28,0,0,0-2.44,4.09,3.61,3.61,0,0,0,1.07,2.62,8.68,8.68,0,0,0,2.62,1.79,24.82,24.82,0,0,0,3.27,1.22C343.26,70.47,344.31,70.76,345.26,71Z"/><path class="cls-1" d="M431.28,46.6v64.06H417v-32a18.45,18.45,0,0,0-5-13,16.32,16.32,0,0,0-18.74-4,16.78,16.78,0,0,0-5.53,4,19.35,19.35,0,0,0,0,26,15.41,15.41,0,0,0,5.53,4,16.75,16.75,0,0,0,6.6,1.34,15.64,15.64,0,0,0,6.43-1.28l5.11,13.68a26.5,26.5,0,0,1-12.73,2.94,27.76,27.76,0,0,1-12.07-2.62,29.42,29.42,0,0,1-9.58-7.22,33.81,33.81,0,0,1-6.31-10.74,39.15,39.15,0,0,1,0-26.22A33.81,33.81,0,0,1,377,54.78a29.28,29.28,0,0,1,9.58-7.22,27.76,27.76,0,0,1,12.07-2.62A26.42,26.42,0,0,1,409,46.85a30.57,30.57,0,0,1,8,4.86V46.6Z"/><path class="cls-1" d="M535.62,98.64a44.13,44.13,0,0,1-13.8,10,40.89,40.89,0,0,1-33.73,0,43.44,43.44,0,0,1-13.8-10A47.09,47.09,0,0,1,465,83.87a50,50,0,0,1,0-36.18,47.14,47.14,0,0,1,9.28-14.84,43.41,43.41,0,0,1,13.8-10,40.89,40.89,0,0,1,33.73,0,44,44,0,0,1,13.8,10L525.5,43.79a29.2,29.2,0,0,0-9.39-6.85,27,27,0,0,0-11.19-2.36,26.67,26.67,0,0,0-11.06,2.36,29.13,29.13,0,0,0-9.4,6.85,31.58,31.58,0,0,0-6.37,10.1,32.47,32.47,0,0,0-2.2,11.89,33,33,0,0,0,2.2,12,31.35,31.35,0,0,0,6.37,10.17,28.33,28.33,0,0,0,9.4,6.78A27.26,27.26,0,0,0,504.92,97a27.6,27.6,0,0,0,11.19-2.3,28.39,28.39,0,0,0,9.39-6.78Z"/><path class="cls-1" d="M602,46.6v64.06H587.72v-32a18.45,18.45,0,0,0-5-13,16.32,16.32,0,0,0-18.74-4,16.78,16.78,0,0,0-5.53,4,19.35,19.35,0,0,0,0,26,15.41,15.41,0,0,0,5.53,4,16.75,16.75,0,0,0,6.6,1.34A15.64,15.64,0,0,0,577,95.7l5.11,13.68a26.5,26.5,0,0,1-12.73,2.94,27.79,27.79,0,0,1-12.07-2.62,29.42,29.42,0,0,1-9.58-7.22,33.6,33.6,0,0,1-6.3-10.74,39,39,0,0,1,0-26.22,33.6,33.6,0,0,1,6.3-10.74,29.28,29.28,0,0,1,9.58-7.22,27.79,27.79,0,0,1,12.07-2.62,26.42,26.42,0,0,1,10.35,1.91,30.57,30.57,0,0,1,8,4.86V46.6Z"/><path class="cls-1" d="M640.9,44.94a23.4,23.4,0,0,1,10.59,2.36,24.53,24.53,0,0,1,8.15,6.52,30.4,30.4,0,0,1,5.24,9.66,36.68,36.68,0,0,1,1.84,11.76v35.42H652.44V75.24a15.23,15.23,0,0,0-1.07-5.75,15.44,15.44,0,0,0-3.09-4.86,13.25,13.25,0,0,0-19.63,0,15,15,0,0,0-4,10.61v35.42H610.33V21.15h14.28V51.84a27.71,27.71,0,0,1,7.25-5A21,21,0,0,1,640.9,44.94Z"/><path class="cls-1" d="M735.61,46.73,708,110.66l-3.68,8.69a28.26,28.26,0,0,1-10,12.41,25.36,25.36,0,0,1-14.75,4.6h-6.31L676.83,121h3.45a11.18,11.18,0,0,0,6.43-2,12.14,12.14,0,0,0,4.4-5.5l1.19-2.81L664.7,46.73h15.7L700.15,92.5,719.9,46.73Z"/><path class="cls-1" d="M795.8,46.6v64.06H781.53v-32a18.46,18.46,0,0,0-5-13,16.32,16.32,0,0,0-18.74-4,16.88,16.88,0,0,0-5.53,4,19.35,19.35,0,0,0,0,26,15.5,15.5,0,0,0,5.53,4A16.76,16.76,0,0,0,764.4,97a15.56,15.56,0,0,0,6.42-1.28l5.12,13.68a26.52,26.52,0,0,1-12.73,2.94,27.8,27.8,0,0,1-12.08-2.62,29.52,29.52,0,0,1-9.58-7.22,33.78,33.78,0,0,1-6.3-10.74,39.15,39.15,0,0,1,0-26.22,33.78,33.78,0,0,1,6.3-10.74,29.38,29.38,0,0,1,9.58-7.22,27.8,27.8,0,0,1,12.08-2.62,26.49,26.49,0,0,1,10.35,1.91,30.73,30.73,0,0,1,8,4.86V46.6Z"/><path class="cls-1" d="M886.58,85.09a32.06,32.06,0,0,1-1.9,11.31,23.24,23.24,0,0,1-13.93,14,30.87,30.87,0,0,1-11.17,1.92A43.42,43.42,0,0,1,842,108.93a49.28,49.28,0,0,1-12.74-7.73l9.88-10.62a28.16,28.16,0,0,0,8.8,5.89,22.89,22.89,0,0,0,5.6,1.66,31.46,31.46,0,0,0,4.28.38,18.06,18.06,0,0,0,5.65-.83,15.29,15.29,0,0,0,4.46-2.24A10.25,10.25,0,0,0,872,87a8.73,8.73,0,0,0-2.15-5.75,12.44,12.44,0,0,0-4.28-3.32A21.18,21.18,0,0,0,861,75.88c-1.58-.51-3-1-4.28-1.41a4.65,4.65,0,0,0-1.07-.32,1.65,1.65,0,0,1-.83-.32,1.74,1.74,0,0,1-.72-.25c-1.67-.51-4.06-1.41-7.2-2.69a45.93,45.93,0,0,1-9.34-5.24q-10.83-7.8-10.82-19.18a29.82,29.82,0,0,1,2.43-12.72,23.79,23.79,0,0,1,15.12-13.11,33.5,33.5,0,0,1,9.45-1.4,41.51,41.51,0,0,1,14.4,2.17,51.44,51.44,0,0,1,9.28,4.35,26,26,0,0,1,3,2.23c.84.73,1.57,1.39,2.2,2L872.54,41A25.64,25.64,0,0,0,866,35.73a22.74,22.74,0,0,0-10.47-2.56,18.49,18.49,0,0,0-4.76.64,17.87,17.87,0,0,0-4.17,1.66q-5.22,3.47-5.23,9.08a8.56,8.56,0,0,0,2.14,5.88,14.6,14.6,0,0,0,4.29,3.46,23.63,23.63,0,0,0,4.76,2l4.63,1.41,1.43.38c.4.17,1.15.43,2.26.77A34.29,34.29,0,0,1,864.81,60q2.25,1,4.94,2.43A42.92,42.92,0,0,1,875,65.78Q886.58,74,886.58,85.09Z"/><path class="cls-1" d="M954.75,46.6v64.06H940.47v-32a18.42,18.42,0,0,0-5-13,16.31,16.31,0,0,0-18.73-4,16.67,16.67,0,0,0-5.53,4,19.35,19.35,0,0,0,0,26,15.32,15.32,0,0,0,5.53,4,16.75,16.75,0,0,0,6.6,1.34,15.64,15.64,0,0,0,6.43-1.28l5.11,13.68a26.5,26.5,0,0,1-12.73,2.94,27.76,27.76,0,0,1-12.07-2.62,29.42,29.42,0,0,1-9.58-7.22,33.81,33.81,0,0,1-6.31-10.74,39.15,39.15,0,0,1,0-26.22,33.81,33.81,0,0,1,6.31-10.74,29.28,29.28,0,0,1,9.58-7.22,27.76,27.76,0,0,1,12.07-2.62,26.42,26.42,0,0,1,10.35,1.91,30.73,30.73,0,0,1,8,4.86V46.6Z"/><path class="cls-1" d="M995.67,44.94a27.8,27.8,0,0,1,12.08,2.62,29.38,29.38,0,0,1,9.58,7.22,34,34,0,0,1,6.3,10.74,39.15,39.15,0,0,1,0,26.22,34,34,0,0,1-6.3,10.74,29.52,29.52,0,0,1-9.58,7.22,27.8,27.8,0,0,1-12.08,2.62,26.52,26.52,0,0,1-12.73-2.94l5.12-13.68A15.61,15.61,0,0,0,994.49,97a16.32,16.32,0,0,0,6.54-1.34,16.83,16.83,0,0,0,5.59-4,19.35,19.35,0,0,0,0-26,16.45,16.45,0,0,0-12.13-5.37,16,16,0,0,0-12.14,5.37,18.46,18.46,0,0,0-5,13v57.54H963.08V46.6h14.27v5.11a30.73,30.73,0,0,1,8-4.86A26.49,26.49,0,0,1,995.67,44.94Z"/><path class="cls-1" d="M1087.64,46.73v63.93h-14.28V105.8a28,28,0,0,1-7.25,4.8,21.56,21.56,0,0,1-9,1.85,23.4,23.4,0,0,1-10.58-2.37,24.74,24.74,0,0,1-8.16-6.45,29.71,29.71,0,0,1-5.23-9.59,36.79,36.79,0,0,1-1.84-11.77V46.73h14.27V82.27a14.9,14.9,0,0,0,4.17,10.49,12.83,12.83,0,0,0,9.75,4.35,13,13,0,0,0,9.88-4.35,14.89,14.89,0,0,0,4-10.49V46.73Z"/><path class="cls-1" d="M1126.78,110.66h-13.09a17.79,17.79,0,0,1-7.61-1.66,19.34,19.34,0,0,1-6.19-4.54,22.38,22.38,0,0,1-4.16-6.71,21.74,21.74,0,0,1-1.55-8.19V33.81L1108.46,30V54.4h8.33l3.57,15.34h-11.9V89.56a5.73,5.73,0,0,0,1.55,4.09,4.86,4.86,0,0,0,3.68,1.67h9.52Z"/><path class="cls-1" d="M1153.37,46.73a22.89,22.89,0,0,1,9.58-1.92V60.15a16,16,0,0,0-12.14,5.37,19.07,19.07,0,0,0-5,13v32.09h-14.28V46.6h14.28v5A30.21,30.21,0,0,1,1153.37,46.73Z"/><path class="cls-1" d="M1226.83,46.6v64.06h-14.27v-32a18.46,18.46,0,0,0-5-13,16.32,16.32,0,0,0-18.74-4,16.88,16.88,0,0,0-5.53,4,19.38,19.38,0,0,0,0,26,15.5,15.5,0,0,0,5.53,4,16.8,16.8,0,0,0,6.61,1.34,15.56,15.56,0,0,0,6.42-1.28l5.12,13.68a26.52,26.52,0,0,1-12.73,2.94,27.8,27.8,0,0,1-12.08-2.62,29.52,29.52,0,0,1-9.58-7.22,33.78,33.78,0,0,1-6.3-10.74,39.15,39.15,0,0,1,0-26.22,33.78,33.78,0,0,1,6.3-10.74,29.38,29.38,0,0,1,9.58-7.22,27.8,27.8,0,0,1,12.08-2.62,26.49,26.49,0,0,1,10.35,1.91,30.73,30.73,0,0,1,8,4.86V46.6Z"/><path class="cls-1" d="M36.48,119.22a9.65,9.65,0,0,1-6-1.78,5.59,5.59,0,0,1-2.3-4.63v-97a13.85,13.85,0,0,1,.52-4.2A4.9,4.9,0,0,1,31.25,9a6.39,6.39,0,0,1,1.08-.44,15.62,15.62,0,0,0,2.81-8q-2.46.27-5.41.72-8,1.21-9.8,1.21a42,42,0,0,1-6.43-.6,43.24,43.24,0,0,0-6.91-.61C2.2,1.22,0,2.51,0,5.07s1.92,3.79,5.76,4q8.31.52,8.32,7.1V114.8a4.14,4.14,0,0,1-1.84,3.38,7.66,7.66,0,0,1-4.72,1.38q-4.8,0-6,.9a3.25,3.25,0,0,0-1.2,2.78q0,5,7.39,5a20.06,20.06,0,0,0,7.06-1.86,19.94,19.94,0,0,1,6.74-1.86,19.79,19.79,0,0,1,7.19,1.94,20.18,20.18,0,0,0,7.67,1.95A8.22,8.22,0,0,0,41.54,127a4.19,4.19,0,0,0,1.73-3.43,4,4,0,0,0-1.37-3.25Q40.52,119.22,36.48,119.22Z"/><path class="cls-1" d="M69.27,93.13Q57,70.71,52.59,64a5.34,5.34,0,0,1-1-2.25c0-.69.78-1.36,2.34-2q12.47-5.19,17.57-11.3a20.67,20.67,0,0,0,2.86-4.52,39.23,39.23,0,0,0,8,9.48Q87.43,57.76,96.27,64q7.11,5.06,12.41,9.2l.1-.12a45,45,0,0,0,7.06-15.29Q110,53.17,102.51,47.9,90.27,39.17,87.29,34.71a15.75,15.75,0,0,1-3-8.79q0-6.23,6.73-11.42a25.67,25.67,0,0,1,16.15-5.19,21.92,21.92,0,0,1,14,4.53q5.75,4.53,5.74,13a4,4,0,0,0,1.36,2.89,4,4,0,0,0,2.76,1.34c2.63,0,3.94-1.9,3.94-5.72a30.23,30.23,0,0,1-.34-3.38c0-2.19,0-3.85.08-5s.09-2,.09-2.47q0-5.55-9.49-9.67A45,45,0,0,0,107.54.73,42.82,42.82,0,0,0,81.67,8.88a28.14,28.14,0,0,0-8.4,9.17,30.16,30.16,0,0,0-7-8.88Q56.19.17,40.08,0a22.45,22.45,0,0,1-1.65,8,22.18,22.18,0,0,1,15.12,7.53q6.68,7.71,6.68,15.5,0,11-5.94,17.15a19.66,19.66,0,0,1-14.76,6.15,22.54,22.54,0,0,1-3.61-.3,21.89,21.89,0,0,0-2.24-.3q-4.17,0-4.17,3.76a4.2,4.2,0,0,0,.32,2.06,3,3,0,0,0,1.37.92q4.19,1.91,8.53,8.63,1.22,1.82,9.34,16.23c1.89,3.35,3.64,6.46,5.28,9.34a144.44,144.44,0,0,0,15.11-1.22Z"/><path class="cls-1" d="M134,74.87A81.56,81.56,0,0,0,122.24,63a48.17,48.17,0,0,1-6.58,13.49c-.36.5-.74,1-1.11,1.47a53.38,53.38,0,0,1,8.21,8.26q5.05,7,5.06,13.24a21.11,21.11,0,0,1-7.5,16.83q-7.5,6.45-18.93,6.45a29,29,0,0,1-18.87-7.45c-1.61-2.37-4.84-7.36-9.12-14.81a136.6,136.6,0,0,1-14.83,1.6q8.88,15.53,11,18.49,1.69,2.16,7,5.22A28.26,28.26,0,0,0,81.81,128a58.33,58.33,0,0,0,19.31,3.45A46.91,46.91,0,0,0,129,122.3q12.75-9.14,12.74-25.58Q141.77,85.13,134,74.87Z"/><path class="cls-2" d="M164.65.5a3.64,3.64,0,0,0-1.87.57A3.7,3.7,0,0,0,160.9.5a3.75,3.75,0,0,0-3.75,3.75V130.82a3.75,3.75,0,0,0,3.75,3.75,3.7,3.7,0,0,0,1.88-.57,3.64,3.64,0,0,0,1.87.57,3.75,3.75,0,0,0,3.75-3.75V4.25A3.75,3.75,0,0,0,164.65.5Zm0,130.93H160.9V4.25h3.75Z"/></g></g></svg>